<?xml version="1.0" encoding="UTF-8" standalone="no"?>
<!DOCTYPE svg PUBLIC "-//W3C//DTD SVG 1.1//EN" "http://www.w3.org/Graphics/SVG/1.1/DTD/svg11.dtd">
<svg version="1.1" xmlns="http://www.w3.org/2000/svg" xmlns:xlink="http://www.w3.org/1999/xlink" preserveAspectRatio="xMidYMid meet" viewBox="0 0 460 150" width="460" height="150"><defs><path d="M306.17 9.11C299.94 9.11 294.89 14.16 294.89 20.39C294.89 26.63 299.94 31.68 306.17 31.68C312.41 31.68 317.46 26.63 317.46 20.39C317.46 14.16 312.41 9.11 306.17 9.11Z" id="b1TYwjbbVG"></path><path d="M41.68 62.71C49.47 62.71 55.79 69.03 55.79 76.82C57.77 76.82 73.56 76.82 75.54 76.82C75.54 58.12 60.38 42.96 41.68 42.96C41.68 46.91 41.68 60.74 41.68 62.71Z" id="d4KEqNlKI9"></path><path d="M41.68 114.2C60.38 114.2 75.54 99.04 75.54 80.34C73.56 80.34 57.77 80.34 55.79 80.34C55.79 88.14 49.47 94.45 41.68 94.45C41.68 98.4 41.68 112.22 41.68 114.2Z" id="eIdNvL2U9"></path><path d="M4.3 80.34C4.3 99.04 19.46 114.2 38.16 114.2C38.16 112.22 38.16 96.43 38.16 94.45C30.37 94.45 24.05 88.14 24.05 80.34C20.1 80.34 6.28 80.34 4.3 80.34Z" id="d2Nd7UhtU8"></path><path d="M120.68 80.34C120.68 99.04 135.84 114.2 154.53 114.2C154.53 112.22 154.53 96.43 154.53 94.45C146.74 94.45 140.43 88.14 140.43 80.34C136.48 80.34 122.65 80.34 120.68 80.34Z" id="c4ksARGwiS"></path><path d="M206.02 114.2C224.72 114.2 239.88 99.04 239.88 80.34C237.9 80.34 222.1 80.34 220.13 80.34C220.13 88.14 213.81 94.45 206.02 94.45C206.02 98.4 206.02 112.22 206.02 114.2Z" id="e5FF6OseaW"></path><path d="M206.02 62.71C213.81 62.71 220.13 69.03 220.13 76.82C222.1 76.82 237.9 76.82 239.88 76.82C239.87 58.12 224.72 42.96 206.02 42.96C206.02 46.91 206.02 60.74 206.02 62.71Z" id="c1u43lqe8A"></path><path d="M188.39 76.82C188.39 69.03 194.7 62.71 202.49 62.71C202.49 60.74 202.49 44.94 202.49 42.96C183.8 42.96 168.64 58.12 168.64 76.82C172.59 76.82 186.41 76.82 188.39 76.82Z" id="b4CoLvODCM"></path><path d="M168.64 80.35L168.64 131.13L188.39 131.13C188.39 119.12 188.39 112.45 188.39 111.12C192.68 113.09 197.46 114.2 202.49 114.2C202.49 112.22 202.49 96.43 202.49 94.45C194.7 94.45 188.39 88.14 188.39 80.35C185.75 80.35 179.17 80.35 168.64 80.35Z" id="f3dj5sNiWK"></path><path d="M106.57 42.96C106.57 42.96 106.57 42.96 106.57 42.96C106.57 63.28 106.57 74.56 106.57 76.82C106.57 76.82 106.57 76.82 106.57 76.82C94.72 76.82 88.14 76.82 86.82 76.82C86.82 76.82 86.82 76.82 86.82 76.82C86.82 56.51 86.82 45.22 86.82 42.96C86.82 42.96 86.82 42.96 86.82 42.96C98.67 42.96 105.26 42.96 106.57 42.96Z" id="a5p2RoNwKM"></path><path d="M106.57 80.34C106.57 80.34 106.57 80.34 106.57 80.34C106.57 100.66 106.57 111.94 106.57 114.2C106.57 114.2 106.57 114.2 106.57 114.2C94.72 114.2 88.14 114.2 86.82 114.2C86.82 114.2 86.82 114.2 86.82 114.2C86.82 93.89 86.82 82.6 86.82 80.34C86.82 80.34 86.82 80.34 86.82 80.34C98.67 80.34 105.26 80.34 106.57 80.34Z" id="auvWZ4ICZ"></path><path d="M96.7 125.48C90.47 125.48 85.41 130.54 85.41 136.77C85.41 143 90.47 148.06 96.7 148.06C102.93 148.06 107.98 143 107.98 136.77C107.98 130.54 102.93 125.48 96.7 125.48Z" id="a7fJlwYznM"></path><path d="M316.05 42.96C316.05 42.96 316.05 42.96 316.05 42.96C316.05 63.28 316.05 74.56 316.05 76.82C316.05 76.82 316.05 76.82 316.05 76.82C304.2 76.82 297.62 76.82 296.3 76.82C296.3 76.82 296.3 76.82 296.3 76.82C296.3 56.51 296.3 45.22 296.3 42.96C296.3 42.96 296.3 42.96 296.3 42.96C308.15 42.96 314.73 42.96 316.05 42.96Z" id="m7lobRSkp"></path><path d="M316.05 80.34C316.05 80.34 316.05 80.34 316.05 80.34C316.05 100.66 316.05 111.94 316.05 114.2C316.05 114.2 316.05 114.2 316.05 114.2C304.2 114.2 297.62 114.2 296.3 114.2C296.3 114.2 296.3 114.2 296.3 114.2C296.3 93.89 296.3 82.6 296.3 80.34C296.3 80.34 296.3 80.34 296.3 80.34C308.15 80.34 314.73 80.34 316.05 80.34Z" id="bwoUZ7ZYC"></path><path d="M270.91 76.82C270.91 69.03 277.22 62.71 285.01 62.71C285.01 60.74 285.01 44.94 285.01 42.96C266.32 42.96 251.16 58.12 251.16 76.82C255.11 76.82 268.93 76.82 270.91 76.82Z" id="b883sP8Yp"></path><path d="M270.91 80.35C270.91 80.35 270.91 80.35 270.91 80.35C270.91 100.66 270.91 111.94 270.91 114.2C270.91 114.2 270.91 114.2 270.91 114.2C259.06 114.2 252.48 114.2 251.16 114.2C251.16 114.2 251.16 114.2 251.16 114.2C251.16 93.89 251.16 82.6 251.16 80.35C251.16 80.35 251.16 80.35 251.16 80.35C263.01 80.35 269.59 80.35 270.91 80.35Z" id="dHF1CdY7F"></path><path d="M352.72 76.82C352.72 69.03 359.04 62.71 366.83 62.71C366.83 60.74 366.83 44.94 366.83 42.96C348.13 42.96 332.97 58.12 332.97 76.82C336.92 76.82 350.75 76.82 352.72 76.82Z" id="c5oboWX8MH"></path><path d="M352.72 80.35C352.72 80.35 352.72 80.35 352.72 80.35C352.72 100.66 352.72 111.94 352.72 114.2C352.72 114.2 352.72 114.2 352.72 114.2C340.87 114.2 334.29 114.2 332.97 114.2C332.97 114.2 332.97 114.2 332.97 114.2C332.97 93.89 332.97 82.6 332.97 80.35C332.97 80.35 332.97 80.35 332.97 80.35C344.82 80.35 351.41 80.35 352.72 80.35Z" id="bxYG4JaN3"></path><path d="M455.7 80.35C455.7 80.35 455.7 80.35 455.7 80.35C455.7 100.66 455.7 111.94 455.7 114.2C455.7 114.2 455.7 114.2 455.7 114.2C443.85 114.2 437.26 114.2 435.95 114.2C435.95 114.2 435.95 114.2 435.95 114.2C435.95 93.89 435.95 82.6 435.95 80.35C435.95 80.35 435.95 80.35 435.95 80.35C447.8 80.35 454.38 80.35 455.7 80.35Z" id="b1BzZVubrz"></path><path d="M370.36 62.71C378.15 62.71 384.46 69.03 384.46 76.82C386.44 76.82 402.24 76.82 404.21 76.82C404.21 69.03 410.53 62.71 418.32 62.71C418.32 60.74 418.32 44.94 418.32 42.96C408.95 42.96 400.47 46.77 394.34 52.92C388.21 46.77 379.72 42.96 370.36 42.96C370.36 46.91 370.36 60.74 370.36 62.71Z" id="amSGOtfUw"></path><path d="M404.21 80.35C404.21 80.35 404.21 80.35 404.21 80.35C404.21 100.66 404.21 111.94 404.21 114.2C404.21 114.2 404.21 114.2 404.21 114.2C392.36 114.2 385.78 114.2 384.46 114.2C384.46 114.2 384.46 114.2 384.46 114.2C384.46 93.89 384.46 82.6 384.46 80.35C384.46 80.35 384.46 80.35 384.46 80.35C396.31 80.35 402.89 80.35 404.21 80.35Z" id="c2Pi0EGAva"></path><path d="M120.68 62.71L120.68 76.82L140.43 76.82L140.43 62.71L154.53 62.71L154.53 42.96L140.43 42.96L120.68 42.96L120.68 62.71Z" id="ar3n9JnhJ"></path><path d="M4.3 31.68L4.3 76.82C16.15 76.82 22.74 76.82 24.05 76.82C24.05 69.03 30.37 62.71 38.16 62.71C38.16 60.74 38.16 44.94 38.16 42.96C33.12 42.96 28.35 44.07 24.05 46.04C24.05 44.71 24.05 38.04 24.05 26.04L4.3 31.68Z" id="b19vrSRUC8"></path><path d="M306.17 9.11C299.94 9.11 294.89 14.16 294.89 20.39C294.89 26.63 299.94 31.68 306.17 31.68C312.41 31.68 317.46 26.63 317.46 20.39C317.46 14.16 312.41 9.11 306.17 9.11Z" id="a2JrJsC9nX"></path><path d="M41.68 62.71C49.47 62.71 55.79 69.03 55.79 76.82C57.77 76.82 73.56 76.82 75.54 76.82C75.54 58.12 60.38 42.96 41.68 42.96C41.68 46.91 41.68 60.74 41.68 62.71Z" id="b6QCtzF4A"></path><path d="M41.68 114.2C60.38 114.2 75.54 99.04 75.54 80.34C73.56 80.34 57.77 80.34 55.79 80.34C55.79 88.14 49.47 94.45 41.68 94.45C41.68 98.4 41.68 112.22 41.68 114.2Z" id="j161pWSzk8"></path><path d="M4.3 80.34C4.3 99.04 19.46 114.2 38.16 114.2C38.16 112.22 38.16 96.43 38.16 94.45C30.37 94.45 24.05 88.14 24.05 80.34C20.1 80.34 6.28 80.34 4.3 80.34Z" id="a8gAMWpbA"></path><path d="M120.68 80.34C120.68 99.04 135.84 114.2 154.53 114.2C154.53 112.22 154.53 96.43 154.53 94.45C146.74 94.45 140.43 88.14 140.43 80.34C136.48 80.34 122.65 80.34 120.68 80.34Z" id="d1N4gbdE1i"></path><path d="M206.02 114.2C224.72 114.2 239.88 99.04 239.88 80.34C237.9 80.34 222.1 80.34 220.13 80.34C220.13 88.14 213.81 94.45 206.02 94.45C206.02 98.4 206.02 112.22 206.02 114.2Z" id="c4xti5Osfq"></path><path d="M206.02 62.71C213.81 62.71 220.13 69.03 220.13 76.82C222.1 76.82 237.9 76.82 239.88 76.82C239.87 58.12 224.72 42.96 206.02 42.96C206.02 46.91 206.02 60.74 206.02 62.71Z" id="cQkfRpfHB"></path><path d="M188.39 76.82C188.39 69.03 194.7 62.71 202.49 62.71C202.49 60.74 202.49 44.94 202.49 42.96C183.8 42.96 168.64 58.12 168.64 76.82C172.59 76.82 186.41 76.82 188.39 76.82Z" id="g660ArX5pF"></path><path d="M168.64 80.35L168.64 131.13L188.39 131.13C188.39 119.12 188.39 112.45 188.39 111.12C192.68 113.09 197.46 114.2 202.49 114.2C202.49 112.22 202.49 96.43 202.49 94.45C194.7 94.45 188.39 88.14 188.39 80.35C185.75 80.35 179.17 80.35 168.64 80.35Z" id="afFA0G7ga"></path><path d="M106.57 42.96C106.57 42.96 106.57 42.96 106.57 42.96C106.57 63.28 106.57 74.56 106.57 76.82C106.57 76.82 106.57 76.82 106.57 76.82C94.72 76.82 88.14 76.82 86.82 76.82C86.82 76.82 86.82 76.82 86.82 76.82C86.82 56.51 86.82 45.22 86.82 42.96C86.82 42.96 86.82 42.96 86.82 42.96C98.67 42.96 105.26 42.96 106.57 42.96Z" id="a6A2grLjXf"></path><path d="M106.57 80.34C106.57 80.34 106.57 80.34 106.57 80.34C106.57 100.66 106.57 111.94 106.57 114.2C106.57 114.2 106.57 114.2 106.57 114.2C94.72 114.2 88.14 114.2 86.82 114.2C86.82 114.2 86.82 114.2 86.82 114.2C86.82 93.89 86.82 82.6 86.82 80.34C86.82 80.34 86.82 80.34 86.82 80.34C98.67 80.34 105.26 80.34 106.57 80.34Z" id="bdDrO6PUL"></path><path d="M96.7 125.48C90.47 125.48 85.41 130.54 85.41 136.77C85.41 143 90.47 148.06 96.7 148.06C102.93 148.06 107.98 143 107.98 136.77C107.98 130.54 102.93 125.48 96.7 125.48Z" id="ikDShGqzC"></path><path d="M316.05 42.96C316.05 42.96 316.05 42.96 316.05 42.96C316.05 63.28 316.05 74.56 316.05 76.82C316.05 76.82 316.05 76.82 316.05 76.82C304.2 76.82 297.62 76.82 296.3 76.82C296.3 76.82 296.3 76.82 296.3 76.82C296.3 56.51 296.3 45.22 296.3 42.96C296.3 42.96 296.3 42.96 296.3 42.96C308.15 42.96 314.73 42.96 316.05 42.96Z" id="cMrNbJV5M"></path><path d="M316.05 80.34C316.05 80.34 316.05 80.34 316.05 80.34C316.05 100.66 316.05 111.94 316.05 114.2C316.05 114.2 316.05 114.2 316.05 114.2C304.2 114.2 297.62 114.2 296.3 114.2C296.3 114.2 296.3 114.2 296.3 114.2C296.3 93.89 296.3 82.6 296.3 80.34C296.3 80.34 296.3 80.34 296.3 80.34C308.15 80.34 314.73 80.34 316.05 80.34Z" id="a1den898Vp"></path><path d="M270.91 76.82C270.91 69.03 277.22 62.71 285.01 62.71C285.01 60.74 285.01 44.94 285.01 42.96C266.32 42.96 251.16 58.12 251.16 76.82C255.11 76.82 268.93 76.82 270.91 76.82Z" id="byWGLb6G"></path><path d="M270.91 80.35C270.91 80.35 270.91 80.35 270.91 80.35C270.91 100.66 270.91 111.94 270.91 114.2C270.91 114.2 270.91 114.2 270.91 114.2C259.06 114.2 252.48 114.2 251.16 114.2C251.16 114.2 251.16 114.2 251.16 114.2C251.16 93.89 251.16 82.6 251.16 80.35C251.16 80.35 251.16 80.35 251.16 80.35C263.01 80.35 269.59 80.35 270.91 80.35Z" id="b5MIItJj4N"></path><path d="M352.72 76.82C352.72 69.03 359.04 62.71 366.83 62.71C366.83 60.74 366.83 44.94 366.83 42.96C348.13 42.96 332.97 58.12 332.97 76.82C336.92 76.82 350.75 76.82 352.72 76.82Z" id="h2NFN1WhDm"></path><path d="M352.72 80.35C352.72 80.35 352.72 80.35 352.72 80.35C352.72 100.66 352.72 111.94 352.72 114.2C352.72 114.2 352.72 114.2 352.72 114.2C340.87 114.2 334.29 114.2 332.97 114.2C332.97 114.2 332.97 114.2 332.97 114.2C332.97 93.89 332.97 82.6 332.97 80.35C332.97 80.35 332.97 80.35 332.97 80.35C344.82 80.35 351.41 80.35 352.72 80.35Z" id="cPg322xO"></path><path d="M455.7 80.35C455.7 80.35 455.7 80.35 455.7 80.35C455.7 100.66 455.7 111.94 455.7 114.2C455.7 114.2 455.7 114.2 455.7 114.2C443.85 114.2 437.26 114.2 435.95 114.2C435.95 114.2 435.95 114.2 435.95 114.2C435.95 93.89 435.95 82.6 435.95 80.35C435.95 80.35 435.95 80.35 435.95 80.35C447.8 80.35 454.38 80.35 455.7 80.35Z" id="aBaipwJ9q"></path><path d="M370.36 62.71C378.15 62.71 384.46 69.03 384.46 76.82C386.44 76.82 402.24 76.82 404.21 76.82C404.21 69.03 410.53 62.71 418.32 62.71C418.32 60.74 418.32 44.94 418.32 42.96C408.95 42.96 400.47 46.77 394.34 52.92C388.21 46.77 379.72 42.96 370.36 42.96C370.36 46.91 370.36 60.74 370.36 62.71Z" id="eFzJ6XaYJ"></path><path d="M404.21 80.35C404.21 80.35 404.21 80.35 404.21 80.35C404.21 100.66 404.21 111.94 404.21 114.2C404.21 114.2 404.21 114.2 404.21 114.2C392.36 114.2 385.78 114.2 384.46 114.2C384.46 114.2 384.46 114.2 384.46 114.2C384.46 93.89 384.46 82.6 384.46 80.35C384.46 80.35 384.46 80.35 384.46 80.35C396.31 80.35 402.89 80.35 404.21 80.35Z" id="c8uOJjCtF"></path><path d="M120.68 62.71L120.68 76.82L140.43 76.82L140.43 62.71L154.53 62.71L154.53 42.96L140.43 42.96L120.68 42.96L120.68 62.71Z" id="b1fHszgsdp"></path><path d="M4.3 31.68L4.3 76.82C16.15 76.82 22.74 76.82 24.05 76.82C24.05 69.03 30.37 62.71 38.16 62.71C38.16 60.74 38.16 44.94 38.16 42.96C33.12 42.96 28.35 44.07 24.05 46.04C24.05 44.71 24.05 38.04 24.05 26.04L4.3 31.68Z" id="c4y0HQn0UV"></path><path d="M421.84 62.71C429.63 62.71 435.95 69.03 435.95 76.82C437.92 76.82 453.72 76.82 455.7 76.82C455.7 58.12 440.54 42.96 421.84 42.96C421.84 46.91 421.84 60.74 421.84 62.71Z" id="b1bcMCrx8V"></path></defs><g><g><g><use xlink:href="#b1TYwjbbVG" opacity="1" fill="#f95700" fill-opacity="1"></use><g><use xlink:href="#b1TYwjbbVG" opacity="1" fill-opacity="0" stroke="#000000" stroke-width="1" stroke-opacity="0"></use></g></g><g><use xlink:href="#d4KEqNlKI9" opacity="1" fill="#f95700" fill-opacity="1"></use><g><use xlink:href="#d4KEqNlKI9" opacity="1" fill-opacity="0" stroke="#000000" stroke-width="1" stroke-opacity="0"></use></g></g><g><use xlink:href="#eIdNvL2U9" opacity="1" fill="#f95700" fill-opacity="1"></use><g><use xlink:href="#eIdNvL2U9" opacity="1" fill-opacity="0" stroke="#000000" stroke-width="1" stroke-opacity="0"></use></g></g><g><use xlink:href="#d2Nd7UhtU8" opacity="1" fill="#f95700" fill-opacity="1"></use><g><use xlink:href="#d2Nd7UhtU8" opacity="1" fill-opacity="0" stroke="#000000" stroke-width="1" stroke-opacity="0"></use></g></g><g><use xlink:href="#c4ksARGwiS" opacity="1" fill="#f95700" fill-opacity="1"></use><g><use xlink:href="#c4ksARGwiS" opacity="1" fill-opacity="0" stroke="#000000" stroke-width="1" stroke-opacity="0"></use></g></g><g><use xlink:href="#e5FF6OseaW" opacity="1" fill="#f95700" fill-opacity="1"></use><g><use xlink:href="#e5FF6OseaW" opacity="1" fill-opacity="0" stroke="#000000" stroke-width="1" stroke-opacity="0"></use></g></g><g><use xlink:href="#c1u43lqe8A" opacity="1" fill="#f95700" fill-opacity="1"></use><g><use xlink:href="#c1u43lqe8A" opacity="1" fill-opacity="0" stroke="#000000" stroke-width="1" stroke-opacity="0"></use></g></g><g><use xlink:href="#b4CoLvODCM" opacity="1" fill="#f95700" fill-opacity="1"></use><g><use xlink:href="#b4CoLvODCM" opacity="1" fill-opacity="0" stroke="#000000" stroke-width="1" stroke-opacity="0"></use></g></g><g><use xlink:href="#f3dj5sNiWK" opacity="1" fill="#f95700" fill-opacity="1"></use><g><use xlink:href="#f3dj5sNiWK" opacity="1" fill-opacity="0" stroke="#000000" stroke-width="1" stroke-opacity="0"></use></g></g><g><use xlink:href="#a5p2RoNwKM" opacity="1" fill="#f95700" fill-opacity="1"></use><g><use xlink:href="#a5p2RoNwKM" opacity="1" fill-opacity="0" stroke="#000000" stroke-width="1" stroke-opacity="0"></use></g></g><g><use xlink:href="#auvWZ4ICZ" opacity="1" fill="#f95700" fill-opacity="1"></use><g><use xlink:href="#auvWZ4ICZ" opacity="1" fill-opacity="0" stroke="#000000" stroke-width="1" stroke-opacity="0"></use></g></g><g><use xlink:href="#a7fJlwYznM" opacity="1" fill="#f95700" fill-opacity="1"></use><g><use xlink:href="#a7fJlwYznM" opacity="1" fill-opacity="0" stroke="#000000" stroke-width="1" stroke-opacity="0"></use></g></g><g><use xlink:href="#m7lobRSkp" opacity="1" fill="#f95700" fill-opacity="1"></use><g><use xlink:href="#m7lobRSkp" opacity="1" fill-opacity="0" stroke="#000000" stroke-width="1" stroke-opacity="0"></use></g></g><g><use xlink:href="#bwoUZ7ZYC" opacity="1" fill="#f95700" fill-opacity="1"></use><g><use xlink:href="#bwoUZ7ZYC" opacity="1" fill-opacity="0" stroke="#000000" stroke-width="1" stroke-opacity="0"></use></g></g><g><use xlink:href="#b883sP8Yp" opacity="1" fill="#f95700" fill-opacity="1"></use><g><use xlink:href="#b883sP8Yp" opacity="1" fill-opacity="0" stroke="#000000" stroke-width="1" stroke-opacity="0"></use></g></g><g><use xlink:href="#dHF1CdY7F" opacity="1" fill="#f95700" fill-opacity="1"></use><g><use xlink:href="#dHF1CdY7F" opacity="1" fill-opacity="0" stroke="#000000" stroke-width="1" stroke-opacity="0"></use></g></g><g><use xlink:href="#c5oboWX8MH" opacity="1" fill="#f95700" fill-opacity="1"></use><g><use xlink:href="#c5oboWX8MH" opacity="1" fill-opacity="0" stroke="#000000" stroke-width="1" stroke-opacity="0"></use></g></g><g><use xlink:href="#bxYG4JaN3" opacity="1" fill="#f95700" fill-opacity="1"></use><g><use xlink:href="#bxYG4JaN3" opacity="1" fill-opacity="0" stroke="#000000" stroke-width="1" stroke-opacity="0"></use></g></g><g><use xlink:href="#b1BzZVubrz" opacity="1" fill="#f95700" fill-opacity="1"></use><g><use xlink:href="#b1BzZVubrz" opacity="1" fill-opacity="0" stroke="#000000" stroke-width="1" stroke-opacity="0"></use></g></g><g><use xlink:href="#amSGOtfUw" opacity="1" fill="#f95700" fill-opacity="1"></use><g><use xlink:href="#amSGOtfUw" opacity="1" fill-opacity="0" stroke="#000000" stroke-width="1" stroke-opacity="0"></use></g></g><g><use xlink:href="#c2Pi0EGAva" opacity="1" fill="#f95700" fill-opacity="1"></use><g><use xlink:href="#c2Pi0EGAva" opacity="1" fill-opacity="0" stroke="#000000" stroke-width="1" stroke-opacity="0"></use></g></g><g><use xlink:href="#ar3n9JnhJ" opacity="1" fill="#f95700" fill-opacity="1"></use><g><use xlink:href="#ar3n9JnhJ" opacity="1" fill-opacity="0" stroke="#000000" stroke-width="1" stroke-opacity="0"></use></g></g><g><use xlink:href="#b19vrSRUC8" opacity="1" fill="#f95700" fill-opacity="1"></use><g><use xlink:href="#b19vrSRUC8" opacity="1" fill-opacity="0" stroke="#000000" stroke-width="1" stroke-opacity="0"></use></g></g><g><use xlink:href="#a2JrJsC9nX" opacity="1" fill="#f95700" fill-opacity="1"></use><g><use xlink:href="#a2JrJsC9nX" opacity="1" fill-opacity="0" stroke="#000000" stroke-width="1" stroke-opacity="0"></use></g></g><g><use xlink:href="#b6QCtzF4A" opacity="1" fill="#f95700" fill-opacity="1"></use><g><use xlink:href="#b6QCtzF4A" opacity="1" fill-opacity="0" stroke="#000000" stroke-width="1" stroke-opacity="0"></use></g></g><g><use xlink:href="#j161pWSzk8" opacity="1" fill="#f95700" fill-opacity="1"></use><g><use xlink:href="#j161pWSzk8" opacity="1" fill-opacity="0" stroke="#000000" stroke-width="1" stroke-opacity="0"></use></g></g><g><use xlink:href="#a8gAMWpbA" opacity="1" fill="#f95700" fill-opacity="1"></use><g><use xlink:href="#a8gAMWpbA" opacity="1" fill-opacity="0" stroke="#000000" stroke-width="1" stroke-opacity="0"></use></g></g><g><use xlink:href="#d1N4gbdE1i" opacity="1" fill="#f95700" fill-opacity="1"></use><g><use xlink:href="#d1N4gbdE1i" opacity="1" fill-opacity="0" stroke="#000000" stroke-width="1" stroke-opacity="0"></use></g></g><g><use xlink:href="#c4xti5Osfq" opacity="1" fill="#f95700" fill-opacity="1"></use><g><use xlink:href="#c4xti5Osfq" opacity="1" fill-opacity="0" stroke="#000000" stroke-width="1" stroke-opacity="0"></use></g></g><g><use xlink:href="#cQkfRpfHB" opacity="1" fill="#f95700" fill-opacity="1"></use><g><use xlink:href="#cQkfRpfHB" opacity="1" fill-opacity="0" stroke="#000000" stroke-width="1" stroke-opacity="0"></use></g></g><g><use xlink:href="#g660ArX5pF" opacity="1" fill="#f95700" fill-opacity="1"></use><g><use xlink:href="#g660ArX5pF" opacity="1" fill-opacity="0" stroke="#000000" stroke-width="1" stroke-opacity="0"></use></g></g><g><use xlink:href="#afFA0G7ga" opacity="1" fill="#f95700" fill-opacity="1"></use><g><use xlink:href="#afFA0G7ga" opacity="1" fill-opacity="0" stroke="#000000" stroke-width="1" stroke-opacity="0"></use></g></g><g><use xlink:href="#a6A2grLjXf" opacity="1" fill="#f95700" fill-opacity="1"></use><g><use xlink:href="#a6A2grLjXf" opacity="1" fill-opacity="0" stroke="#000000" stroke-width="1" stroke-opacity="0"></use></g></g><g><use xlink:href="#bdDrO6PUL" opacity="1" fill="#f95700" fill-opacity="1"></use><g><use xlink:href="#bdDrO6PUL" opacity="1" fill-opacity="0" stroke="#000000" stroke-width="1" stroke-opacity="0"></use></g></g><g><use xlink:href="#ikDShGqzC" opacity="1" fill="#f95700" fill-opacity="1"></use><g><use xlink:href="#ikDShGqzC" opacity="1" fill-opacity="0" stroke="#000000" stroke-width="1" stroke-opacity="0"></use></g></g><g><use xlink:href="#cMrNbJV5M" opacity="1" fill="#f95700" fill-opacity="1"></use><g><use xlink:href="#cMrNbJV5M" opacity="1" fill-opacity="0" stroke="#000000" stroke-width="1" stroke-opacity="0"></use></g></g><g><use xlink:href="#a1den898Vp" opacity="1" fill="#f95700" fill-opacity="1"></use><g><use xlink:href="#a1den898Vp" opacity="1" fill-opacity="0" stroke="#000000" stroke-width="1" stroke-opacity="0"></use></g></g><g><use xlink:href="#byWGLb6G" opacity="1" fill="#f95700" fill-opacity="1"></use><g><use xlink:href="#byWGLb6G" opacity="1" fill-opacity="0" stroke="#000000" stroke-width="1" stroke-opacity="0"></use></g></g><g><use xlink:href="#b5MIItJj4N" opacity="1" fill="#f95700" fill-opacity="1"></use><g><use xlink:href="#b5MIItJj4N" opacity="1" fill-opacity="0" stroke="#000000" stroke-width="1" stroke-opacity="0"></use></g></g><g><use xlink:href="#h2NFN1WhDm" opacity="1" fill="#f95700" fill-opacity="1"></use><g><use xlink:href="#h2NFN1WhDm" opacity="1" fill-opacity="0" stroke="#000000" stroke-width="1" stroke-opacity="0"></use></g></g><g><use xlink:href="#cPg322xO" opacity="1" fill="#f95700" fill-opacity="1"></use><g><use xlink:href="#cPg322xO" opacity="1" fill-opacity="0" stroke="#000000" stroke-width="1" stroke-opacity="0"></use></g></g><g><use xlink:href="#aBaipwJ9q" opacity="1" fill="#f95700" fill-opacity="1"></use><g><use xlink:href="#aBaipwJ9q" opacity="1" fill-opacity="0" stroke="#000000" stroke-width="1" stroke-opacity="0"></use></g></g><g><use xlink:href="#eFzJ6XaYJ" opacity="1" fill="#f95700" fill-opacity="1"></use><g><use xlink:href="#eFzJ6XaYJ" opacity="1" fill-opacity="0" stroke="#000000" stroke-width="1" stroke-opacity="0"></use></g></g><g><use xlink:href="#c8uOJjCtF" opacity="1" fill="#f95700" fill-opacity="1"></use><g><use xlink:href="#c8uOJjCtF" opacity="1" fill-opacity="0" stroke="#000000" stroke-width="1" stroke-opacity="0"></use></g></g><g><use xlink:href="#b1fHszgsdp" opacity="1" fill="#f95700" fill-opacity="1"></use><g><use xlink:href="#b1fHszgsdp" opacity="1" fill-opacity="0" stroke="#000000" stroke-width="1" stroke-opacity="0"></use></g></g><g><use xlink:href="#c4y0HQn0UV" opacity="1" fill="#f95700" fill-opacity="1"></use><g><use xlink:href="#c4y0HQn0UV" opacity="1" fill-opacity="0" stroke="#000000" stroke-width="1" stroke-opacity="0"></use></g></g><g><use xlink:href="#b1bcMCrx8V" opacity="1" fill="#f95700" fill-opacity="1"></use><g><use xlink:href="#b1bcMCrx8V" opacity="1" fill-opacity="0" stroke="#000000" stroke-width="1" stroke-opacity="0"></use></g></g></g></g></svg>